<svg width="326" height="70" viewBox="0 0 326 70" fill="none" xmlns="http://www.w3.org/2000/svg">
<g clip-path="url(#clip0_3790_4110)">
<path d="M185.651 10.7744C189.188 5.19851 197.964 7.65493 197.964 14.3887V64.1504C197.964 66.92 195.719 69.1649 192.949 69.165C190.18 69.165 187.934 66.92 187.934 64.1504V26.8662L179.282 41.8516C175.812 47.8615 167.138 47.8615 163.668 41.8516L155.016 26.8652V64.1504C155.016 66.9201 152.771 69.165 150.001 69.165C147.231 69.165 144.986 66.92 144.986 64.1504V14.3887C144.987 7.65487 153.762 5.19855 157.299 10.7744L157.463 11.0459L171.475 35.3145L185.486 11.0459L185.651 10.7744ZM50.5675 5.39258C52.0905 1.83983 56.2058 0.194413 59.7589 1.7168C63.3119 3.23982 64.9573 7.355 63.4347 10.9082L41.2003 62.7891C38.1336 69.9445 28.0433 70.0951 24.7647 63.0342L0.652433 11.0986C-0.975052 7.59251 0.547051 3.42993 4.05282 1.80176C7.55895 0.173913 11.7213 1.69643 13.3497 5.20215L32.7452 46.9766L50.5675 5.39258ZM76.002 18.1504C79.868 18.1504 83.002 21.2844 83.002 25.1504V61.1504C83.002 65.0164 79.868 68.1504 76.002 68.1504C72.1361 68.1503 69.002 65.0163 69.002 61.1504V25.1504C69.002 21.2844 72.1361 18.1505 76.002 18.1504ZM130.402 2.63086C133.451 2.63086 135.922 5.10178 135.922 8.15039V44.2793C135.974 44.8962 136.002 45.5201 136.002 46.1504C136.002 46.7803 135.974 47.404 135.922 48.0205V48.1504C135.922 48.639 135.857 49.1124 135.738 49.5635C134.098 60.0929 124.991 68.1504 114.002 68.1504C101.852 68.1503 92.002 58.3006 92.002 46.1504C92.002 34.0002 101.852 24.1505 114.002 24.1504C117.96 24.1504 121.674 25.1959 124.883 27.0254V8.15039C124.883 5.10182 127.354 2.63093 130.402 2.63086ZM211.949 18.1504C215.815 18.1504 218.949 21.2844 218.949 25.1504V61.1504C218.949 65.0164 215.815 68.1504 211.949 68.1504C208.083 68.1503 204.949 65.0163 204.949 61.1504V25.1504C204.949 21.2844 208.083 18.1505 211.949 18.1504ZM252.502 14.1504C266.585 14.1504 278.002 25.5671 278.002 39.6504V62.1504C278.002 65.4641 275.316 68.1504 272.002 68.1504C268.688 68.1503 266.002 65.4641 266.002 62.1504V39.6504C266.002 32.1945 259.958 26.1504 252.502 26.1504C245.046 26.1505 239.002 32.1946 239.002 39.6504V62.1504C239.002 65.4641 236.316 68.1504 233.002 68.1504C229.688 68.1503 227.002 65.4641 227.002 62.1504V39.6504C227.002 25.5672 238.419 14.1505 252.502 14.1504ZM320.402 2.63086C323.451 2.63086 325.922 5.10178 325.922 8.15039V44.2793C325.974 44.8962 326.002 45.5201 326.002 46.1504C326.002 46.7803 325.974 47.404 325.922 48.0205V48.1504C325.922 48.639 325.857 49.1124 325.738 49.5635C324.098 60.0929 314.991 68.1504 304.002 68.1504C291.852 68.1503 282.002 58.3006 282.002 46.1504C282.002 34.0002 291.852 24.1505 304.002 24.1504C307.96 24.1504 311.674 25.1959 314.883 27.0254V8.15039C314.883 5.10182 317.354 2.63093 320.402 2.63086ZM76.502 0C76.9971 2.86363e-05 77.4364 0.317414 77.5929 0.787109L78.4464 3.34961L78.5206 3.55273C78.7078 4.02152 78.989 4.44793 79.3468 4.80566C79.7555 5.21433 80.2531 5.52231 80.8009 5.70508H80.8018L83.3653 6.55957C83.835 6.71602 84.1524 7.1553 84.1524 7.65039C84.1524 8.14548 83.835 8.58476 83.3653 8.74121L80.8018 9.5957V9.59473C80.2537 9.77744 79.7558 10.0862 79.3468 10.4951C78.938 10.9039 78.6295 11.4024 78.4464 11.9512L77.5929 14.5137C77.4364 14.9834 76.9971 15.3008 76.502 15.3008C76.007 15.3007 75.5677 14.9834 75.4112 14.5137L74.5567 11.9502V11.9492C74.3968 11.47 74.141 11.0289 73.8058 10.6523L73.6573 10.4951C73.2487 10.0863 72.7506 9.77746 72.2022 9.59473V9.5957L69.6388 8.74121C69.1691 8.58472 68.8517 8.14544 68.8517 7.65039C68.8517 7.15534 69.1691 6.71606 69.6388 6.55957L72.2022 5.70508C72.7504 5.52233 73.2488 5.21439 73.6573 4.80566C74.0661 4.39685 74.3741 3.89855 74.5567 3.35059L75.4112 0.787109L75.4825 0.618164C75.6782 0.242952 76.0689 4.79553e-05 76.502 0ZM212.002 1.15039C215.868 1.15039 219.002 4.2844 219.002 8.15039C219.002 12.0164 215.868 15.1504 212.002 15.1504C208.136 15.1503 205.002 12.0163 205.002 8.15039C205.002 4.28444 208.136 1.15046 212.002 1.15039ZM76.502 4.67676C76.2042 5.32825 75.793 5.92387 75.2843 6.43262C74.7754 6.94175 74.1797 7.35268 73.5284 7.65039C74.1798 7.94815 74.7753 8.35989 75.2843 8.86914C75.7926 9.37757 76.2043 9.97208 76.502 10.623C76.7998 9.97228 77.2113 9.37778 77.7198 8.86914C78.2287 8.36028 78.8237 7.94812 79.4747 7.65039C78.8237 7.3527 78.2286 6.94141 77.7198 6.43262C77.2109 5.9237 76.7999 5.32798 76.502 4.67676Z" fill="url(#paint0_linear_3790_4110)"/>
<path d="M107.002 35.8089C107.002 34.5489 108.352 33.7511 109.456 34.3575L126.442 43.7016C126.702 43.8446 126.918 44.0546 127.069 44.3098C127.22 44.5649 127.3 44.8558 127.3 45.1522C127.3 45.4486 127.22 45.7395 127.069 45.9948C126.918 46.2499 126.702 46.4599 126.442 46.6029L109.456 55.9455C109.204 56.0841 108.92 56.1546 108.632 56.1502C108.345 56.1457 108.063 56.0664 107.816 55.92C107.568 55.7737 107.363 55.5654 107.22 55.3157C107.077 55.0659 107.002 54.7832 107.002 54.4955V35.8089Z" fill="white" stroke="white" stroke-width="1.65597" stroke-linecap="round" stroke-linejoin="round"/>
</g>
<defs>
<linearGradient id="paint0_linear_3790_4110" x1="146.701" y1="56.6438" x2="170.825" y2="-44.9341" gradientUnits="userSpaceOnUse">
<stop stop-color="#00C853"/>
<stop offset="1" stop-color="#AEEA00"/>
</linearGradient>
<clipPath id="clip0_3790_4110">
<rect width="326.002" height="69.165" fill="white"/>
</clipPath>
</defs>
</svg>
